<?xml version="1.0" encoding="utf-8"?>
<!-- Generator: Adobe Illustrator 26.4.1, SVG Export Plug-In . SVG Version: 6.00 Build 0)  -->
<svg version="1.1" id="Layer_1" xmlns="http://www.w3.org/2000/svg" xmlns:xlink="http://www.w3.org/1999/xlink" x="0px" y="0px"
	 viewBox="0 0 119.5 126.7" style="enable-background:new 0 0 119.5 126.7;" xml:space="preserve">
<style type="text/css">
	.st0{fill:#87CEEB;}
</style>
<path class="st0" d="M42,94.8l-3.6,11.5c-0.1,0.2-0.1,0.4-0.1,0.7l0,0c0,0.3,0.1,0.5,0.2,0.6c0.1,0.2,0.3,0.2,0.5,0.2l0,0
	c0.5,0,0.9-0.2,1.2-0.6s0.5-0.6,0.7-0.6l0,0c0.2,0,0.3,0.1,0.5,0.4c0.1,0.3,0.2,0.6,0.2,0.9l0,0c0,1.1-0.3,2.2-1.1,3.3
	c-0.8,1.1-1.9,1.9-3.4,2.6s-3.3,1-5.4,1l0,0c-2.6,0-4.6-0.6-6.1-1.8c-1.5-1.2-2.3-2.8-2.3-4.8l0,0c0-1.4,0.3-3.1,1-4.9l0,0l3.2-8.4
	c0.2-0.5,0.3-0.9,0.3-1.2l0,0c0-0.5-0.2-0.9-0.5-1.2s-0.7-0.4-1.2-0.4l0,0c-0.7,0-1.5,0.3-2.3,1s-1.4,1.8-1.8,3.3l0,0v0.1l-3.7,11.9
	c-0.1,0.5-0.2,0.9-0.2,1.2l0,0c0,0.5,0.1,0.9,0.3,1.2c0.2,0.3,0.5,0.6,0.8,0.9l0,0c0.3,0.3,0.5,0.5,0.6,0.7s0.1,0.4,0.1,0.7l0,0
	c-0.2,0.5-0.6,0.9-1.2,1.1s-1.5,0.4-2.7,0.4l0,0H2.7c-1,0-1.8-0.2-2.2-0.5c-0.5-0.3-0.6-0.8-0.5-1.3l0,0c0.2-0.5,0.6-0.9,1.2-1.2
	l0,0c0.6-0.3,1.1-0.7,1.5-1.1s0.7-1.1,1-2l0,0l8.9-29.2c0.1-0.3,0.2-0.6,0.2-0.9l0,0c0-0.4-0.1-0.8-0.3-1c-0.2-0.3-0.5-0.6-0.9-0.8
	l0,0c-0.4-0.3-0.7-0.6-0.8-0.8c-0.2-0.2-0.2-0.5-0.1-0.9l0,0c0.2-0.9,1.5-1.7,3.7-2.3c2.2-0.7,4.5-1,7-1l0,0c2.3,0,3.9,0.4,5,1.3
	c1.1,0.9,1.6,2,1.6,3.5l0,0c0,0.9-0.1,1.7-0.4,2.5l0,0l-3.2,10.3c1.5-2,3.1-3.4,4.8-4.2s3.5-1.2,5.5-1.2l0,0c2.4,0,4.3,0.7,5.8,2.2
	c1.5,1.4,2.2,3.3,2.2,5.6l0,0C42.6,92.5,42.4,93.7,42,94.8L42,94.8z M75,83.5c1.6,0,3,0.6,4,1.7s1.6,2.5,1.6,4.1l0,0
	c0,0.7-0.1,1.5-0.3,2.3l0,0c-0.4,1.3-1.1,2.3-1.9,3s-1.8,1-2.8,1l0,0c-1.3,0-2.5-0.4-3.6-1.2l0,0l-2.9,2.7c1,2.7,1.8,4.6,2.4,5.9
	s1.1,2.1,1.5,2.5s0.8,0.6,1.3,0.6l0,0c0.3,0,0.6-0.1,1.1-0.3c0.4-0.2,0.8-0.3,1-0.3l0,0c0.2,0,0.4,0.1,0.6,0.3
	c0.2,0.2,0.2,0.5,0.2,0.9l0,0c0,0.2,0,0.5-0.1,0.9l0,0c-0.3,1.3-1,2.5-2,3.6s-2.2,2-3.6,2.6s-2.8,1-4.3,1l0,0
	c-1.4,0-2.7-0.2-3.8-0.5c-1-0.4-2.1-1.2-3.2-2.5c-1.1-1.3-2.2-3.2-3.3-5.8l0,0l-1.5,3.3c-0.9,2.1-1.9,3.5-2.8,4.4
	c-1,0.8-2.1,1.3-3.4,1.3l0,0c-1.7,0-3.1-0.5-4.2-1.6c-1.1-1.1-1.6-2.5-1.6-4.2l0,0c0-0.8,0.1-1.5,0.4-2.3l0,0c0.4-1.3,1.1-2.3,1.9-3
	c0.8-0.7,1.8-1,2.8-1l0,0c1.2,0,2.4,0.4,3.6,1.2l0,0l2.9-2.7c-0.9-2.7-1.7-4.6-2.3-5.9s-1.1-2.1-1.5-2.5s-0.9-0.6-1.4-0.6l0,0
	c-0.3,0-0.6,0.1-1,0.3s-0.7,0.3-1,0.3l0,0c-0.6,0-0.9-0.4-0.9-1.2l0,0c0-0.1,0-0.4,0.1-0.8l0,0c0.5-2,1.7-3.7,3.7-5.1
	c1.9-1.4,4-2.1,6.2-2.1l0,0c1.4,0,2.6,0.2,3.7,0.6c1.1,0.4,2.1,1.3,3.2,2.6s2.2,3.2,3.2,5.6l0,0l1.6-3.7c0.9-1.9,1.8-3.2,2.7-4
	C72.4,83.9,73.6,83.5,75,83.5L75,83.5z M118.9,94.8l-3.6,11.5c-0.1,0.2-0.1,0.4-0.1,0.7l0,0c0,0.3,0.1,0.5,0.2,0.6
	c0.1,0.2,0.3,0.2,0.6,0.2l0,0c0.5,0,0.9-0.2,1.2-0.6c0.3-0.4,0.6-0.6,0.7-0.6l0,0c0.2,0,0.3,0.1,0.5,0.4c0.1,0.3,0.2,0.6,0.2,0.9
	l0,0c0,1.1-0.3,2.2-1.1,3.3c-0.8,1.1-1.9,1.9-3.4,2.6s-3.3,1-5.4,1l0,0c-2.6,0-4.6-0.6-6.1-1.8c-1.5-1.2-2.3-2.8-2.3-4.8l0,0
	c0-1.4,0.4-3.1,1.1-4.9l0,0l3.2-8.4c0.2-0.5,0.3-0.9,0.3-1.2l0,0c0-0.5-0.2-0.9-0.5-1.2s-0.7-0.4-1.2-0.4l0,0
	c-0.9,0-1.7,0.4-2.5,1.2s-1.3,1.8-1.7,3l0,0l-3.6,11.9c-0.2,0.4-0.2,0.8-0.2,1.2l0,0c0,0.5,0.1,0.8,0.3,1.1c0.2,0.3,0.5,0.6,0.8,0.9
	l0,0c0.3,0.2,0.5,0.4,0.6,0.6s0.1,0.4,0.1,0.7l0,0c-0.2,0.5-0.5,0.9-1.1,1.1s-1.5,0.4-2.8,0.4l0,0H79.5c-1,0-1.7-0.2-2.2-0.5
	s-0.6-0.8-0.5-1.3l0,0c0.2-0.5,0.6-0.9,1.2-1.2l0,0c0.6-0.3,1.1-0.7,1.5-1.1s0.7-1.1,1-2l0,0l5.2-16.9c0.1-0.2,0.1-0.5,0.1-0.8l0,0
	c0-0.4-0.1-0.8-0.3-1c-0.2-0.2-0.5-0.5-0.9-0.9l0,0c-0.4-0.3-0.7-0.6-0.8-0.8s-0.2-0.5-0.1-0.9l0,0c0.2-0.9,1.5-1.7,3.7-2.4
	s4.5-1,7-1l0,0c1.9,0,3.5,0.5,4.6,1.6s1.6,2.6,1.5,4.5l0,0c1.6-2.3,3.3-3.9,5.1-4.8c1.8-0.9,3.7-1.3,5.8-1.3l0,0
	c2.4,0,4.3,0.7,5.8,2.2c1.5,1.4,2.2,3.3,2.2,5.6l0,0C119.5,92.5,119.3,93.7,118.9,94.8L118.9,94.8z"/>
<g transform="matrix(0.07781347632408142, 0, 0, 0.07781347632408142, 229.38809204101562, 167.24493408203125)">
	<path class="st0" d="M-1824.9-1590.4c-48.9,44.3-112.1,68.8-178,68.8c-146.2,0-265.2-119-265.2-265.2c0-65.9,24.4-129.1,68.8-178
		c13.7-15.1-1-38.9-20.7-33.3c-144.3,40.8-252.1,173.7-252.1,333.6c0,191.7,155.1,346.8,346.8,346.8
		c159.6,0,292.7-107.4,333.7-252.1C-1786-1589.4-1809.7-1604.2-1824.9-1590.4z M-2125.3-1358.5c-168.7,0-306-137.3-306-306
		c0-113.3,63.2-216.1,159.8-268.8c-24.4,44.6-37.4,94.8-37.4,146.4c0,168.7,137.3,306,306,306c51.6,0,101.9-13,146.4-37.4
		C-1909.2-1421.7-2012-1358.5-2125.3-1358.5z"/>
	<path class="st0" d="M-2134.2-1729.7l48.3,24.2l24.2,48.3c3.5,6.9,10.5,11.3,18.2,11.3s14.8-4.4,18.2-11.3l24.2-48.3l48.3-24.2
		c6.9-3.5,11.3-10.5,11.3-18.2s-4.4-14.8-11.3-18.3l-48.3-24.2l-24.2-48.3c-3.5-6.9-10.5-11.3-18.2-11.3s-14.8,4.4-18.2,11.3
		l-24.2,48.3l-48.3,24.2c-6.9,3.5-11.3,10.5-11.3,18.3C-2145.5-1740.2-2141.2-1733.2-2134.2-1729.7z M-2061.6-1756.9
		c4-2,7.2-5.2,9.1-9.1l9-17.9l9,17.9c2,3.9,5.2,7.1,9.1,9.1l17.9,9l-17.9,9c-3.9,2-7.1,5.2-9.1,9.1l-9,17.9l-9-17.9
		c-2-3.9-5.2-7.1-9.1-9.1l-17.9-9L-2061.6-1756.9z"/>
	<path class="st0" d="M-1921.3-1888.9h20.4v20.4c0,11.3,9.1,20.4,20.4,20.4c11.3,0,20.4-9.1,20.4-20.4v-20.4h20.4
		c11.3,0,20.4-9.1,20.4-20.4c0-11.3-9.1-20.4-20.4-20.4h-20.4v-20.4c0-11.3-9.1-20.4-20.4-20.4c-11.3,0-20.4,9.1-20.4,20.4v20.4
		h-20.4c-11.3,0-20.4,9.1-20.4,20.4C-1941.7-1898-1932.5-1888.9-1921.3-1888.9z"/>
</g>
</svg>
